<svg width="223" height="149" viewBox="0 0 223 149" fill="none" xmlns="http://www.w3.org/2000/svg">
<rect width="223" height="149" fill="#3A3A3A"/>
<rect x="6.5" y="6.5" width="210" height="136" stroke="white"/>
<path d="M30.276 40.512H33.732V62.76H45.432V66H30.276V40.512ZM48.368 48.936H51.608V66H48.368V48.936ZM47.612 42.816C47.612 42.168 47.84 41.616 48.296 41.16C48.776 40.68 49.34 40.44 49.988 40.44C50.636 40.44 51.188 40.68 51.644 41.16C52.124 41.616 52.364 42.168 52.364 42.816C52.364 43.464 52.124 44.028 51.644 44.508C51.188 44.964 50.636 45.192 49.988 45.192C49.34 45.192 48.776 44.964 48.296 44.508C47.84 44.028 47.612 43.464 47.612 42.816ZM56.7644 38.784H60.0044V51.384H60.0764C60.6524 50.496 61.4804 49.8 62.5604 49.296C63.6404 48.768 64.7924 48.504 66.0164 48.504C67.3364 48.504 68.5244 48.732 69.5804 49.188C70.6604 49.644 71.5724 50.28 72.3164 51.096C73.0844 51.888 73.6724 52.836 74.0804 53.94C74.4884 55.02 74.6924 56.196 74.6924 57.468C74.6924 58.74 74.4884 59.916 74.0804 60.996C73.6724 62.076 73.0844 63.024 72.3164 63.84C71.5724 64.656 70.6604 65.292 69.5804 65.748C68.5244 66.204 67.3364 66.432 66.0164 66.432C64.8644 66.432 63.7364 66.18 62.6324 65.676C61.5524 65.172 60.7004 64.464 60.0764 63.552H60.0044V66H56.7644V38.784ZM65.6204 63.408C66.4844 63.408 67.2644 63.264 67.9604 62.976C68.6564 62.664 69.2444 62.256 69.7244 61.752C70.2044 61.224 70.5764 60.6 70.8404 59.88C71.1044 59.136 71.2364 58.332 71.2364 57.468C71.2364 56.604 71.1044 55.812 70.8404 55.092C70.5764 54.348 70.2044 53.724 69.7244 53.22C69.2444 52.692 68.6564 52.284 67.9604 51.996C67.2644 51.684 66.4844 51.528 65.6204 51.528C64.7564 51.528 63.9764 51.684 63.2804 51.996C62.5844 52.284 61.9964 52.692 61.5164 53.22C61.0364 53.724 60.6644 54.348 60.4004 55.092C60.1364 55.812 60.0044 56.604 60.0044 57.468C60.0044 58.332 60.1364 59.136 60.4004 59.88C60.6644 60.6 61.0364 61.224 61.5164 61.752C61.9964 62.256 62.5844 62.664 63.2804 62.976C63.9764 63.264 64.7564 63.408 65.6204 63.408ZM81.2202 58.656C81.2202 59.4 81.3762 60.084 81.6882 60.708C82.0242 61.308 82.4562 61.824 82.9842 62.256C83.5122 62.688 84.1242 63.024 84.8202 63.264C85.5162 63.504 86.2362 63.624 86.9802 63.624C87.9882 63.624 88.8642 63.396 89.6082 62.94C90.3522 62.46 91.0362 61.836 91.6602 61.068L94.1082 62.94C92.3082 65.268 89.7882 66.432 86.5482 66.432C85.2042 66.432 83.9802 66.204 82.8762 65.748C81.7962 65.292 80.8722 64.668 80.1042 63.876C79.3602 63.06 78.7842 62.112 78.3762 61.032C77.9682 59.928 77.7642 58.74 77.7642 57.468C77.7642 56.196 77.9802 55.02 78.4122 53.94C78.8682 52.836 79.4802 51.888 80.2482 51.096C81.0402 50.28 81.9762 49.644 83.0562 49.188C84.1362 48.732 85.3122 48.504 86.5842 48.504C88.0962 48.504 89.3682 48.768 90.4002 49.296C91.4562 49.824 92.3202 50.52 92.9922 51.384C93.6642 52.224 94.1442 53.184 94.4322 54.264C94.7442 55.32 94.9002 56.4 94.9002 57.504V58.656H81.2202ZM91.4442 56.064C91.4202 55.344 91.3002 54.684 91.0842 54.084C90.8922 53.484 90.5922 52.968 90.1842 52.536C89.7762 52.08 89.2602 51.732 88.6362 51.492C88.0362 51.228 87.3282 51.096 86.5122 51.096C85.7202 51.096 84.9882 51.252 84.3162 51.564C83.6682 51.852 83.1162 52.236 82.6602 52.716C82.2042 53.196 81.8442 53.736 81.5802 54.336C81.3402 54.912 81.2202 55.488 81.2202 56.064H91.4442ZM98.7761 48.936H102.016V51.564H102.088C102.304 51.108 102.592 50.7 102.952 50.34C103.312 49.956 103.708 49.632 104.14 49.368C104.596 49.104 105.088 48.9 105.616 48.756C106.144 48.588 106.672 48.504 107.2 48.504C107.728 48.504 108.208 48.576 108.64 48.72L108.496 52.212C108.232 52.14 107.968 52.08 107.704 52.032C107.44 51.984 107.176 51.96 106.912 51.96C105.328 51.96 104.116 52.404 103.276 53.292C102.436 54.18 102.016 55.56 102.016 57.432V66H98.7761V48.936ZM121.244 51.744H116.6V59.484C116.6 59.964 116.612 60.444 116.636 60.924C116.66 61.38 116.744 61.8 116.888 62.184C117.056 62.544 117.296 62.844 117.608 63.084C117.944 63.3 118.424 63.408 119.048 63.408C119.432 63.408 119.828 63.372 120.236 63.3C120.644 63.228 121.016 63.096 121.352 62.904V65.856C120.968 66.072 120.464 66.216 119.84 66.288C119.24 66.384 118.772 66.432 118.436 66.432C117.188 66.432 116.216 66.264 115.52 65.928C114.848 65.568 114.344 65.112 114.008 64.56C113.696 64.008 113.504 63.396 113.432 62.724C113.384 62.028 113.36 61.332 113.36 60.636V51.744H109.616V48.936H113.36V44.148H116.6V48.936H121.244V51.744ZM123.373 48.936H127.117L132.193 62.256H132.265L137.089 48.936H140.581L132.481 69.672C132.193 70.416 131.893 71.088 131.581 71.688C131.269 72.312 130.897 72.84 130.465 73.272C130.033 73.704 129.505 74.04 128.881 74.28C128.281 74.52 127.537 74.64 126.649 74.64C126.169 74.64 125.677 74.604 125.173 74.532C124.693 74.484 124.225 74.364 123.769 74.172L124.165 71.22C124.813 71.484 125.461 71.616 126.109 71.616C126.613 71.616 127.033 71.544 127.369 71.4C127.729 71.28 128.029 71.088 128.269 70.824C128.533 70.584 128.749 70.296 128.917 69.96C129.085 69.624 129.253 69.24 129.421 68.808L130.465 66.108L123.373 48.936Z" fill="white"/>
<path d="M48.024 87.02C47.304 86.084 46.392 85.364 45.288 84.86C44.184 84.356 43.044 84.104 41.868 84.104C40.428 84.104 39.12 84.38 37.944 84.932C36.792 85.46 35.796 86.192 34.956 87.128C34.14 88.064 33.504 89.168 33.048 90.44C32.592 91.688 32.364 93.032 32.364 94.472C32.364 95.816 32.58 97.088 33.012 98.288C33.444 99.488 34.068 100.544 34.884 101.456C35.7 102.368 36.696 103.088 37.872 103.616C39.048 104.144 40.38 104.408 41.868 104.408C43.332 104.408 44.616 104.108 45.72 103.508C46.824 102.908 47.76 102.068 48.528 100.988L51.444 103.184C51.252 103.448 50.916 103.832 50.436 104.336C49.956 104.816 49.32 105.308 48.528 105.812C47.736 106.292 46.776 106.712 45.648 107.072C44.544 107.456 43.26 107.648 41.796 107.648C39.78 107.648 37.956 107.264 36.324 106.496C34.716 105.728 33.336 104.72 32.184 103.472C31.056 102.224 30.192 100.82 29.592 99.26C28.992 97.676 28.692 96.08 28.692 94.472C28.692 92.504 29.016 90.692 29.664 89.036C30.312 87.356 31.212 85.916 32.364 84.716C33.54 83.492 34.944 82.544 36.576 81.872C38.208 81.2 40.008 80.864 41.976 80.864C43.656 80.864 45.3 81.188 46.908 81.836C48.54 82.484 49.872 83.48 50.904 84.824L48.024 87.02ZM57.4237 98.468C57.4237 99.332 57.5557 100.136 57.8197 100.88C58.0837 101.6 58.4557 102.224 58.9357 102.752C59.4157 103.256 60.0037 103.664 60.6997 103.976C61.3957 104.264 62.1757 104.408 63.0397 104.408C63.9037 104.408 64.6837 104.264 65.3797 103.976C66.0757 103.664 66.6637 103.256 67.1437 102.752C67.6237 102.224 67.9957 101.6 68.2597 100.88C68.5237 100.136 68.6557 99.332 68.6557 98.468C68.6557 97.604 68.5237 96.812 68.2597 96.092C67.9957 95.348 67.6237 94.724 67.1437 94.22C66.6637 93.692 66.0757 93.284 65.3797 92.996C64.6837 92.684 63.9037 92.528 63.0397 92.528C62.1757 92.528 61.3957 92.684 60.6997 92.996C60.0037 93.284 59.4157 93.692 58.9357 94.22C58.4557 94.724 58.0837 95.348 57.8197 96.092C57.5557 96.812 57.4237 97.604 57.4237 98.468ZM53.9677 98.468C53.9677 97.22 54.1957 96.056 54.6517 94.976C55.1317 93.896 55.7797 92.948 56.5957 92.132C57.4117 91.316 58.3717 90.68 59.4757 90.224C60.5797 89.744 61.7677 89.504 63.0397 89.504C64.3117 89.504 65.4997 89.744 66.6037 90.224C67.7077 90.68 68.6677 91.316 69.4837 92.132C70.2997 92.948 70.9357 93.896 71.3917 94.976C71.8717 96.056 72.1117 97.22 72.1117 98.468C72.1117 99.716 71.8717 100.892 71.3917 101.996C70.9357 103.076 70.2997 104.024 69.4837 104.84C68.6677 105.632 67.7077 106.268 66.6037 106.748C65.4997 107.204 64.3117 107.432 63.0397 107.432C61.7677 107.432 60.5797 107.204 59.4757 106.748C58.3717 106.268 57.4117 105.632 56.5957 104.84C55.7797 104.024 55.1317 103.076 54.6517 101.996C54.1957 100.892 53.9677 99.716 53.9677 98.468ZM76.1707 89.936H79.4107V92.564H79.4827C79.8907 91.652 80.5987 90.92 81.6067 90.368C82.6147 89.792 83.7787 89.504 85.0987 89.504C85.9147 89.504 86.6947 89.636 87.4387 89.9C88.2067 90.14 88.8667 90.524 89.4187 91.052C89.9947 91.58 90.4507 92.264 90.7867 93.104C91.1227 93.92 91.2907 94.892 91.2907 96.02V107H88.0507V96.92C88.0507 96.128 87.9427 95.456 87.7267 94.904C87.5107 94.328 87.2227 93.872 86.8627 93.536C86.5027 93.176 86.0827 92.924 85.6027 92.78C85.1467 92.612 84.6667 92.528 84.1627 92.528C83.4907 92.528 82.8667 92.636 82.2907 92.852C81.7147 93.068 81.2107 93.416 80.7787 93.896C80.3467 94.352 80.0107 94.94 79.7707 95.66C79.5307 96.38 79.4107 97.232 79.4107 98.216V107H76.1707V89.936ZM105.247 94.22C104.863 93.74 104.383 93.344 103.807 93.032C103.255 92.696 102.571 92.528 101.755 92.528C100.987 92.528 100.315 92.696 99.7386 93.032C99.1866 93.344 98.9106 93.812 98.9106 94.436C98.9106 94.94 99.0666 95.348 99.3786 95.66C99.7146 95.972 100.099 96.224 100.531 96.416C100.987 96.608 101.467 96.752 101.971 96.848C102.475 96.944 102.907 97.028 103.267 97.1C103.963 97.268 104.611 97.472 105.211 97.712C105.835 97.952 106.363 98.264 106.795 98.648C107.251 99.032 107.599 99.5 107.839 100.052C108.103 100.604 108.235 101.276 108.235 102.068C108.235 103.028 108.031 103.856 107.623 104.552C107.215 105.224 106.687 105.776 106.039 106.208C105.391 106.64 104.647 106.952 103.807 107.144C102.991 107.336 102.163 107.432 101.323 107.432C99.9066 107.432 98.6586 107.216 97.5786 106.784C96.5226 106.352 95.5746 105.56 94.7346 104.408L97.1826 102.392C97.7106 102.92 98.2986 103.388 98.9466 103.796C99.5946 104.204 100.387 104.408 101.323 104.408C101.731 104.408 102.139 104.372 102.547 104.3C102.979 104.204 103.351 104.072 103.663 103.904C103.999 103.712 104.263 103.484 104.455 103.22C104.671 102.932 104.779 102.608 104.779 102.248C104.779 101.768 104.623 101.372 104.311 101.06C104.023 100.748 103.663 100.508 103.231 100.34C102.823 100.148 102.379 100.004 101.899 99.908C101.443 99.788 101.035 99.692 100.675 99.62C99.9786 99.452 99.3186 99.26 98.6946 99.044C98.0706 98.828 97.5186 98.54 97.0386 98.18C96.5586 97.82 96.1746 97.364 95.8866 96.812C95.5986 96.26 95.4546 95.576 95.4546 94.76C95.4546 93.872 95.6346 93.104 95.9946 92.456C96.3786 91.784 96.8706 91.232 97.4706 90.8C98.0946 90.368 98.7906 90.044 99.5586 89.828C100.351 89.612 101.143 89.504 101.935 89.504C103.087 89.504 104.191 89.72 105.247 90.152C106.303 90.584 107.143 91.304 107.767 92.312L105.247 94.22ZM127.291 107H124.051V104.372H123.979C123.571 105.284 122.863 106.028 121.855 106.604C120.847 107.156 119.683 107.432 118.363 107.432C117.523 107.432 116.731 107.3 115.987 107.036C115.243 106.796 114.583 106.412 114.007 105.884C113.455 105.356 113.011 104.684 112.675 103.868C112.339 103.028 112.171 102.044 112.171 100.916V89.936H115.411V100.016C115.411 100.808 115.519 101.492 115.735 102.068C115.951 102.62 116.239 103.076 116.599 103.436C116.959 103.772 117.367 104.024 117.823 104.192C118.303 104.336 118.795 104.408 119.299 104.408C119.971 104.408 120.595 104.3 121.171 104.084C121.747 103.868 122.251 103.532 122.683 103.076C123.115 102.596 123.451 101.996 123.691 101.276C123.931 100.556 124.051 99.704 124.051 98.72V89.936H127.291V107ZM132.427 79.784H135.667V107H132.427V79.784ZM149.967 92.744H145.323V100.484C145.323 100.964 145.335 101.444 145.359 101.924C145.383 102.38 145.467 102.8 145.611 103.184C145.779 103.544 146.019 103.844 146.331 104.084C146.667 104.3 147.147 104.408 147.771 104.408C148.155 104.408 148.551 104.372 148.959 104.3C149.367 104.228 149.739 104.096 150.075 103.904V106.856C149.691 107.072 149.187 107.216 148.563 107.288C147.963 107.384 147.495 107.432 147.159 107.432C145.911 107.432 144.939 107.264 144.243 106.928C143.571 106.568 143.067 106.112 142.731 105.56C142.419 105.008 142.227 104.396 142.155 103.724C142.107 103.028 142.083 102.332 142.083 101.636V92.744H138.339V89.936H142.083V85.148H145.323V89.936H149.967V92.744ZM154.399 89.936H157.639V107H154.399V89.936ZM153.643 83.816C153.643 83.168 153.871 82.616 154.327 82.16C154.807 81.68 155.371 81.44 156.019 81.44C156.667 81.44 157.219 81.68 157.675 82.16C158.155 82.616 158.395 83.168 158.395 83.816C158.395 84.464 158.155 85.028 157.675 85.508C157.219 85.964 156.667 86.192 156.019 86.192C155.371 86.192 154.807 85.964 154.327 85.508C153.871 85.028 153.643 84.464 153.643 83.816ZM162.796 89.936H166.036V92.564H166.108C166.516 91.652 167.224 90.92 168.232 90.368C169.24 89.792 170.404 89.504 171.724 89.504C172.54 89.504 173.32 89.636 174.064 89.9C174.832 90.14 175.492 90.524 176.044 91.052C176.62 91.58 177.076 92.264 177.412 93.104C177.748 93.92 177.916 94.892 177.916 96.02V107H174.676V96.92C174.676 96.128 174.568 95.456 174.352 94.904C174.136 94.328 173.848 93.872 173.488 93.536C173.128 93.176 172.708 92.924 172.228 92.78C171.772 92.612 171.292 92.528 170.788 92.528C170.116 92.528 169.492 92.636 168.916 92.852C168.34 93.068 167.836 93.416 167.404 93.896C166.972 94.352 166.636 94.94 166.396 95.66C166.156 96.38 166.036 97.232 166.036 98.216V107H162.796V89.936ZM199.9 106.856C199.9 108.152 199.672 109.328 199.216 110.384C198.784 111.464 198.16 112.388 197.344 113.156C196.528 113.948 195.544 114.56 194.392 114.992C193.24 115.424 191.968 115.64 190.576 115.64C188.944 115.64 187.444 115.412 186.076 114.956C184.732 114.5 183.448 113.708 182.224 112.58L184.42 109.844C185.26 110.756 186.172 111.44 187.156 111.896C188.14 112.376 189.256 112.616 190.504 112.616C191.704 112.616 192.7 112.436 193.492 112.076C194.284 111.74 194.908 111.296 195.364 110.744C195.844 110.192 196.18 109.556 196.372 108.836C196.564 108.14 196.66 107.432 196.66 106.712V104.192H196.552C195.928 105.224 195.076 105.992 193.996 106.496C192.94 106.976 191.824 107.216 190.648 107.216C189.4 107.216 188.236 107 187.156 106.568C186.1 106.112 185.188 105.5 184.42 104.732C183.652 103.94 183.052 103.016 182.62 101.96C182.188 100.88 181.972 99.716 181.972 98.468C181.972 97.22 182.176 96.056 182.584 94.976C182.992 93.872 183.568 92.912 184.312 92.096C185.08 91.28 185.992 90.644 187.048 90.188C188.128 89.732 189.328 89.504 190.648 89.504C191.8 89.504 192.916 89.756 193.996 90.26C195.1 90.764 195.964 91.472 196.588 92.384H196.66V89.936H199.9V106.856ZM191.044 92.528C190.18 92.528 189.4 92.684 188.704 92.996C188.008 93.284 187.42 93.692 186.94 94.22C186.46 94.724 186.088 95.348 185.824 96.092C185.56 96.812 185.428 97.604 185.428 98.468C185.428 100.196 185.932 101.588 186.94 102.644C187.948 103.676 189.316 104.192 191.044 104.192C192.772 104.192 194.14 103.676 195.148 102.644C196.156 101.588 196.66 100.196 196.66 98.468C196.66 97.604 196.528 96.812 196.264 96.092C196 95.348 195.628 94.724 195.148 94.22C194.668 93.692 194.08 93.284 193.384 92.996C192.688 92.684 191.908 92.528 191.044 92.528Z" fill="white"/>
<rect x="148" y="47" width="52" height="20" fill="white"/>
</svg>
